<svg xmlns="http://www.w3.org/2000/svg" width="1400" height="560" viewBox="0 0 1400 560">
<rect width="100%" height="100%" fill="white"/>
<style>text{font-family:Arial,sans-serif;fill:#17212B} .title{font-size:26px;font-weight:bold} .label{font-size:16px} .small{font-size:14px}</style>
<text x="70" y="40" class="title">ADXL362 Y axis: raw vs calibrated at 12.5 Hz</text>
<text x="70" y="67" class="label">1,000 samples per pose; plotted lines use non-overlapping 10-sample means.</text>
<rect x="90" y="90" width="1240" height="365" fill="none" stroke="#9AA5AF"/>
<rect x="90.0" y="90" width="204.9" height="365" fill="#E9EEF3" opacity="0.55"/>
<text x="192.5" y="483" text-anchor="middle" class="label">-Y</text>
<line x1="297.0" y1="90" x2="297.0" y2="455" stroke="#B7C0C8"/>
<text x="399.5" y="483" text-anchor="middle" class="label">+Y</text>
<rect x="504.0" y="90" width="204.9" height="365" fill="#E9EEF3" opacity="0.55"/>
<line x1="504.0" y1="90" x2="504.0" y2="455" stroke="#B7C0C8"/>
<text x="606.5" y="483" text-anchor="middle" class="label">-X</text>
<line x1="711.0" y1="90" x2="711.0" y2="455" stroke="#B7C0C8"/>
<text x="813.5" y="483" text-anchor="middle" class="label">+X</text>
<rect x="918.0" y="90" width="204.9" height="365" fill="#E9EEF3" opacity="0.55"/>
<line x1="918.0" y1="90" x2="918.0" y2="455" stroke="#B7C0C8"/>
<text x="1020.5" y="483" text-anchor="middle" class="label">+Z</text>
<line x1="1125.1" y1="90" x2="1125.1" y2="455" stroke="#B7C0C8"/>
<text x="1227.5" y="483" text-anchor="middle" class="label">-Z</text>
<line x1="90" y1="409.4" x2="1330" y2="409.4" stroke="#D3D9DE"/>
<text x="78" y="414.4" text-anchor="end" class="small">-1.0</text>
<line x1="90" y1="344.2" x2="1330" y2="344.2" stroke="#D3D9DE"/>
<text x="78" y="349.2" text-anchor="end" class="small">-0.5</text>
<line x1="90" y1="279.0" x2="1330" y2="279.0" stroke="#D3D9DE"/>
<text x="78" y="284.0" text-anchor="end" class="small">0.0</text>
<line x1="90" y1="213.8" x2="1330" y2="213.8" stroke="#D3D9DE"/>
<text x="78" y="218.8" text-anchor="end" class="small">0.5</text>
<line x1="90" y1="148.7" x2="1330" y2="148.7" stroke="#D3D9DE"/>
<text x="78" y="153.7" text-anchor="end" class="small">1.0</text>
<polyline points="90.0,409.4 92.1,409.4 94.1,409.4 96.2,409.4 98.3,409.4 100.4,409.4 102.4,409.4 104.5,409.4 106.6,409.4 108.6,409.4 110.7,409.4 112.8,409.4 114.8,409.4 116.9,409.4 119.0,409.4 121.1,409.4 123.1,409.4 125.2,409.4 127.3,409.4 129.3,409.4 131.4,409.4 133.5,409.4 135.5,409.4 137.6,409.4 139.7,409.4 141.8,409.4 143.8,409.4 145.9,409.4 148.0,409.4 150.0,409.4 152.1,409.4 154.2,409.4 156.2,409.4 158.3,409.4 160.4,409.4 162.5,409.4 164.5,409.4 166.6,409.4 168.7,409.4 170.7,409.4 172.8,409.4 174.9,409.4 176.9,409.4 179.0,409.4 181.1,409.4 183.2,409.4 185.2,409.4 187.3,409.4 189.4,409.4 191.4,409.4 193.5,409.4 195.6,409.4 197.6,409.4 199.7,409.4 201.8,409.4 203.9,409.4 205.9,409.4 208.0,409.4 210.1,409.4 212.1,409.4 214.2,409.4 216.3,409.4 218.3,409.4 220.4,409.4 222.5,409.4 224.6,409.4 226.6,409.4 228.7,409.4 230.8,409.4 232.8,409.4 234.9,409.4 237.0,409.4 239.0,409.4 241.1,409.4 243.2,409.4 245.3,409.4 247.3,409.4 249.4,409.4 251.5,409.4 253.5,409.4 255.6,409.4 257.7,409.4 259.7,409.4 261.8,409.4 263.9,409.4 266.0,409.4 268.0,409.4 270.1,409.4 272.2,409.4 274.2,409.4 276.3,409.4 278.4,409.4 280.5,409.4 282.5,409.4 284.6,409.4 286.7,409.4 288.7,409.4 290.8,409.4 292.9,409.4 294.9,409.4 297.0,148.7 299.1,148.7 301.2,148.7 303.2,148.7 305.3,148.7 307.4,148.7 309.4,148.7 311.5,148.7 313.6,148.7 315.6,148.7 317.7,148.7 319.8,148.7 321.9,148.7 323.9,148.7 326.0,148.7 328.1,148.7 330.1,148.7 332.2,148.7 334.3,148.7 336.3,148.7 338.4,148.7 340.5,148.7 342.6,148.7 344.6,148.7 346.7,148.7 348.8,148.7 350.8,148.7 352.9,148.7 355.0,148.7 357.0,148.7 359.1,148.7 361.2,148.7 363.3,148.7 365.3,148.7 367.4,148.7 369.5,148.7 371.5,148.7 373.6,148.7 375.7,148.7 377.7,148.7 379.8,148.7 381.9,148.7 384.0,148.7 386.0,148.7 388.1,148.7 390.2,148.7 392.2,148.7 394.3,148.7 396.4,148.7 398.4,148.7 400.5,148.7 402.6,148.7 404.7,148.7 406.7,148.7 408.8,148.7 410.9,148.7 412.9,148.7 415.0,148.7 417.1,148.7 419.1,148.7 421.2,148.7 423.3,148.7 425.4,148.7 427.4,148.7 429.5,148.7 431.6,148.7 433.6,148.7 435.7,148.7 437.8,148.7 439.8,148.7 441.9,148.7 444.0,148.7 446.1,148.7 448.1,148.7 450.2,148.7 452.3,148.7 454.3,148.7 456.4,148.7 458.5,148.7 460.6,148.7 462.6,148.7 464.7,148.7 466.8,148.7 468.8,148.7 470.9,148.7 473.0,148.7 475.0,148.7 477.1,148.7 479.2,148.7 481.3,148.7 483.3,148.7 485.4,148.7 487.5,148.7 489.5,148.7 491.6,148.7 493.7,148.7 495.7,148.7 497.8,148.7 499.9,148.7 502.0,148.7 504.0,279.0 506.1,279.0 508.2,279.0 510.2,279.0 512.3,279.0 514.4,279.0 516.4,279.0 518.5,279.0 520.6,279.0 522.7,279.0 524.7,279.0 526.8,279.0 528.9,279.0 530.9,279.0 533.0,279.0 535.1,279.0 537.1,279.0 539.2,279.0 541.3,279.0 543.4,279.0 545.4,279.0 547.5,279.0 549.6,279.0 551.6,279.0 553.7,279.0 555.8,279.0 557.8,279.0 559.9,279.0 562.0,279.0 564.1,279.0 566.1,279.0 568.2,279.0 570.3,279.0 572.3,279.0 574.4,279.0 576.5,279.0 578.5,279.0 580.6,279.0 582.7,279.0 584.8,279.0 586.8,279.0 588.9,279.0 591.0,279.0 593.0,279.0 595.1,279.0 597.2,279.0 599.2,279.0 601.3,279.0 603.4,279.0 605.5,279.0 607.5,279.0 609.6,279.0 611.7,279.0 613.7,279.0 615.8,279.0 617.9,279.0 619.9,279.0 622.0,279.0 624.1,279.0 626.2,279.0 628.2,279.0 630.3,279.0 632.4,279.0 634.4,279.0 636.5,279.0 638.6,279.0 640.7,279.0 642.7,279.0 644.8,279.0 646.9,279.0 648.9,279.0 651.0,279.0 653.1,279.0 655.1,279.0 657.2,279.0 659.3,279.0 661.4,279.0 663.4,279.0 665.5,279.0 667.6,279.0 669.6,279.0 671.7,279.0 673.8,279.0 675.8,279.0 677.9,279.0 680.0,279.0 682.1,279.0 684.1,279.0 686.2,279.0 688.3,279.0 690.3,279.0 692.4,279.0 694.5,279.0 696.5,279.0 698.6,279.0 700.7,279.0 702.8,279.0 704.8,279.0 706.9,279.0 709.0,279.0 711.0,279.0 713.1,279.0 715.2,279.0 717.2,279.0 719.3,279.0 721.4,279.0 723.5,279.0 725.5,279.0 727.6,279.0 729.7,279.0 731.7,279.0 733.8,279.0 735.9,279.0 737.9,279.0 740.0,279.0 742.1,279.0 744.2,279.0 746.2,279.0 748.3,279.0 750.4,279.0 752.4,279.0 754.5,279.0 756.6,279.0 758.6,279.0 760.7,279.0 762.8,279.0 764.9,279.0 766.9,279.0 769.0,279.0 771.1,279.0 773.1,279.0 775.2,279.0 777.3,279.0 779.3,279.0 781.4,279.0 783.5,279.0 785.6,279.0 787.6,279.0 789.7,279.0 791.8,279.0 793.8,279.0 795.9,279.0 798.0,279.0 800.1,279.0 802.1,279.0 804.2,279.0 806.3,279.0 808.3,279.0 810.4,279.0 812.5,279.0 814.5,279.0 816.6,279.0 818.7,279.0 820.8,279.0 822.8,279.0 824.9,279.0 827.0,279.0 829.0,279.0 831.1,279.0 833.2,279.0 835.2,279.0 837.3,279.0 839.4,279.0 841.5,279.0 843.5,279.0 845.6,279.0 847.7,279.0 849.7,279.0 851.8,279.0 853.9,279.0 855.9,279.0 858.0,279.0 860.1,279.0 862.2,279.0 864.2,279.0 866.3,279.0 868.4,279.0 870.4,279.0 872.5,279.0 874.6,279.0 876.6,279.0 878.7,279.0 880.8,279.0 882.9,279.0 884.9,279.0 887.0,279.0 889.1,279.0 891.1,279.0 893.2,279.0 895.3,279.0 897.3,279.0 899.4,279.0 901.5,279.0 903.6,279.0 905.6,279.0 907.7,279.0 909.8,279.0 911.8,279.0 913.9,279.0 916.0,279.0 918.0,279.0 920.1,279.0 922.2,279.0 924.3,279.0 926.3,279.0 928.4,279.0 930.5,279.0 932.5,279.0 934.6,279.0 936.7,279.0 938.7,279.0 940.8,279.0 942.9,279.0 945.0,279.0 947.0,279.0 949.1,279.0 951.2,279.0 953.2,279.0 955.3,279.0 957.4,279.0 959.4,279.0 961.5,279.0 963.6,279.0 965.7,279.0 967.7,279.0 969.8,279.0 971.9,279.0 973.9,279.0 976.0,279.0 978.1,279.0 980.2,279.0 982.2,279.0 984.3,279.0 986.4,279.0 988.4,279.0 990.5,279.0 992.6,279.0 994.6,279.0 996.7,279.0 998.8,279.0 1000.9,279.0 1002.9,279.0 1005.0,279.0 1007.1,279.0 1009.1,279.0 1011.2,279.0 1013.3,279.0 1015.3,279.0 1017.4,279.0 1019.5,279.0 1021.6,279.0 1023.6,279.0 1025.7,279.0 1027.8,279.0 1029.8,279.0 1031.9,279.0 1034.0,279.0 1036.0,279.0 1038.1,279.0 1040.2,279.0 1042.3,279.0 1044.3,279.0 1046.4,279.0 1048.5,279.0 1050.5,279.0 1052.6,279.0 1054.7,279.0 1056.7,279.0 1058.8,279.0 1060.9,279.0 1063.0,279.0 1065.0,279.0 1067.1,279.0 1069.2,279.0 1071.2,279.0 1073.3,279.0 1075.4,279.0 1077.4,279.0 1079.5,279.0 1081.6,279.0 1083.7,279.0 1085.7,279.0 1087.8,279.0 1089.9,279.0 1091.9,279.0 1094.0,279.0 1096.1,279.0 1098.1,279.0 1100.2,279.0 1102.3,279.0 1104.4,279.0 1106.4,279.0 1108.5,279.0 1110.6,279.0 1112.6,279.0 1114.7,279.0 1116.8,279.0 1118.8,279.0 1120.9,279.0 1123.0,279.0 1125.1,279.0 1127.1,279.0 1129.2,279.0 1131.3,279.0 1133.3,279.0 1135.4,279.0 1137.5,279.0 1139.5,279.0 1141.6,279.0 1143.7,279.0 1145.8,279.0 1147.8,279.0 1149.9,279.0 1152.0,279.0 1154.0,279.0 1156.1,279.0 1158.2,279.0 1160.3,279.0 1162.3,279.0 1164.4,279.0 1166.5,279.0 1168.5,279.0 1170.6,279.0 1172.7,279.0 1174.7,279.0 1176.8,279.0 1178.9,279.0 1181.0,279.0 1183.0,279.0 1185.1,279.0 1187.2,279.0 1189.2,279.0 1191.3,279.0 1193.4,279.0 1195.4,279.0 1197.5,279.0 1199.6,279.0 1201.7,279.0 1203.7,279.0 1205.8,279.0 1207.9,279.0 1209.9,279.0 1212.0,279.0 1214.1,279.0 1216.1,279.0 1218.2,279.0 1220.3,279.0 1222.4,279.0 1224.4,279.0 1226.5,279.0 1228.6,279.0 1230.6,279.0 1232.7,279.0 1234.8,279.0 1236.8,279.0 1238.9,279.0 1241.0,279.0 1243.1,279.0 1245.1,279.0 1247.2,279.0 1249.3,279.0 1251.3,279.0 1253.4,279.0 1255.5,279.0 1257.5,279.0 1259.6,279.0 1261.7,279.0 1263.8,279.0 1265.8,279.0 1267.9,279.0 1270.0,279.0 1272.0,279.0 1274.1,279.0 1276.2,279.0 1278.2,279.0 1280.3,279.0 1282.4,279.0 1284.5,279.0 1286.5,279.0 1288.6,279.0 1290.7,279.0 1292.7,279.0 1294.8,279.0 1296.9,279.0 1298.9,279.0 1301.0,279.0 1303.1,279.0 1305.2,279.0 1307.2,279.0 1309.3,279.0 1311.4,279.0 1313.4,279.0 1315.5,279.0 1317.6,279.0 1319.6,279.0 1321.7,279.0 1323.8,279.0 1325.9,279.0 1327.9,279.0 1330.0,279.0" fill="none" stroke="#17212B" stroke-width="2" stroke-dasharray="7 5"/>
<polyline points="90.0,425.5 92.1,425.3 94.1,425.6 96.2,425.4 98.3,425.5 100.4,425.5 102.4,425.5 104.5,425.3 106.6,425.4 108.6,425.1 110.7,425.2 112.8,425.6 114.8,425.9 116.9,425.3 119.0,425.0 121.1,425.3 123.1,425.3 125.2,425.4 127.3,425.5 129.3,425.5 131.4,425.6 133.5,425.6 135.5,425.6 137.6,425.9 139.7,425.6 141.8,425.6 143.8,425.7 145.9,425.3 148.0,425.7 150.0,425.5 152.1,425.6 154.2,425.4 156.2,425.3 158.3,425.9 160.4,425.7 162.5,425.7 164.5,425.5 166.6,425.4 168.7,425.6 170.7,425.4 172.8,425.6 174.9,425.0 176.9,425.5 179.0,425.4 181.1,425.6 183.2,425.6 185.2,425.2 187.3,425.7 189.4,425.1 191.4,425.3 193.5,425.5 195.6,425.5 197.6,425.7 199.7,425.6 201.8,425.5 203.9,425.4 205.9,425.3 208.0,425.5 210.1,425.6 212.1,425.5 214.2,425.4 216.3,425.7 218.3,425.7 220.4,425.5 222.5,425.3 224.6,425.4 226.6,425.7 228.7,425.5 230.8,425.2 232.8,425.3 234.9,425.3 237.0,425.5 239.0,425.4 241.1,425.3 243.2,425.4 245.3,425.1 247.3,425.6 249.4,425.5 251.5,425.4 253.5,425.6 255.6,425.4 257.7,425.5 259.7,425.4 261.8,425.4 263.9,425.5 266.0,425.2 268.0,425.4 270.1,425.4 272.2,425.2 274.2,425.4 276.3,425.5 278.4,425.4 280.5,425.3 282.5,425.6 284.6,425.7 286.7,425.6 288.7,425.3 290.8,425.3 292.9,425.2 294.9,425.5 297.0,146.3 299.1,146.4 301.2,146.1 303.2,146.1 305.3,146.2 307.4,146.3 309.4,146.4 311.5,146.2 313.6,146.1 315.6,146.1 317.7,146.4 319.8,146.1 321.9,146.5 323.9,146.4 326.0,146.5 328.1,146.1 330.1,146.1 332.2,146.2 334.3,145.9 336.3,146.2 338.4,146.5 340.5,146.0 342.6,146.5 344.6,146.2 346.7,146.5 348.8,146.0 350.8,146.5 352.9,146.4 355.0,146.3 357.0,146.2 359.1,146.3 361.2,146.1 363.3,146.1 365.3,146.2 367.4,146.4 369.5,146.2 371.5,146.2 373.6,146.3 375.7,146.2 377.7,146.5 379.8,146.3 381.9,145.9 384.0,146.4 386.0,146.2 388.1,146.6 390.2,146.4 392.2,146.3 394.3,146.2 396.4,146.4 398.4,146.0 400.5,146.2 402.6,146.3 404.7,146.4 406.7,146.1 408.8,146.1 410.9,146.5 412.9,146.2 415.0,146.3 417.1,146.2 419.1,146.3 421.2,146.3 423.3,146.3 425.4,146.4 427.4,146.2 429.5,146.2 431.6,146.2 433.6,146.3 435.7,146.1 437.8,146.5 439.8,146.2 441.9,146.3 444.0,146.6 446.1,146.0 448.1,146.3 450.2,146.2 452.3,146.2 454.3,146.2 456.4,146.5 458.5,145.9 460.6,146.2 462.6,146.5 464.7,146.3 466.8,146.3 468.8,146.1 470.9,146.3 473.0,146.2 475.0,146.3 477.1,146.3 479.2,146.2 481.3,146.1 483.3,146.0 485.4,146.2 487.5,146.0 489.5,146.2 491.6,146.3 493.7,146.4 495.7,146.4 497.8,146.4 499.9,146.2 502.0,146.5 504.0,284.3 506.1,284.0 508.2,283.8 510.2,284.0 512.3,284.3 514.4,284.1 516.4,284.2 518.5,284.1 520.6,284.1 522.7,283.9 524.7,283.9 526.8,283.9 528.9,284.0 530.9,283.9 533.0,284.3 535.1,284.1 537.1,284.2 539.2,284.0 541.3,284.1 543.4,284.1 545.4,283.9 547.5,284.0 549.6,284.3 551.6,284.2 553.7,284.0 555.8,284.1 557.8,284.2 559.9,284.2 562.0,284.2 564.1,283.9 566.1,284.1 568.2,284.0 570.3,284.0 572.3,284.1 574.4,284.0 576.5,284.2 578.5,284.2 580.6,284.0 582.7,284.1 584.8,284.0 586.8,284.0 588.9,284.1 591.0,284.2 593.0,284.2 595.1,284.2 597.2,284.2 599.2,284.1 601.3,284.4 603.4,283.9 605.5,284.0 607.5,284.0 609.6,284.1 611.7,284.1 613.7,284.2 615.8,284.0 617.9,283.8 619.9,284.0 622.0,284.2 624.1,283.7 626.2,284.1 628.2,283.9 630.3,284.2 632.4,284.0 634.4,283.9 636.5,284.2 638.6,284.1 640.7,284.0 642.7,284.3 644.8,284.1 646.9,284.1 648.9,284.0 651.0,284.1 653.1,284.0 655.1,284.0 657.2,284.1 659.3,284.2 661.4,283.8 663.4,284.1 665.5,284.2 667.6,284.0 669.6,283.9 671.7,284.1 673.8,284.1 675.8,284.0 677.9,284.1 680.0,283.9 682.1,283.9 684.1,283.9 686.2,283.9 688.3,284.1 690.3,284.1 692.4,284.2 694.5,284.1 696.5,283.8 698.6,284.0 700.7,284.1 702.8,284.0 704.8,284.1 706.9,284.2 709.0,283.9 711.0,287.5 713.1,287.7 715.2,287.8 717.2,288.0 719.3,287.6 721.4,287.4 723.5,287.9 725.5,287.7 727.6,287.8 729.7,287.7 731.7,287.8 733.8,287.6 735.9,287.7 737.9,287.6 740.0,287.9 742.1,287.7 744.2,287.8 746.2,287.7 748.3,287.8 750.4,287.7 752.4,287.9 754.5,287.7 756.6,288.1 758.6,287.8 760.7,287.7 762.8,288.0 764.9,287.6 766.9,287.7 769.0,287.8 771.1,287.8 773.1,287.6 775.2,288.0 777.3,288.0 779.3,287.6 781.4,287.9 783.5,287.7 785.6,287.8 787.6,287.8 789.7,287.9 791.8,287.6 793.8,288.0 795.9,287.8 798.0,287.8 800.1,287.8 802.1,287.8 804.2,287.7 806.3,287.8 808.3,287.7 810.4,287.7 812.5,287.8 814.5,288.1 816.6,287.8 818.7,287.8 820.8,287.8 822.8,287.9 824.9,287.8 827.0,287.8 829.0,288.2 831.1,287.9 833.2,288.0 835.2,288.0 837.3,287.8 839.4,288.0 841.5,288.0 843.5,287.9 845.6,287.8 847.7,287.9 849.7,288.1 851.8,287.9 853.9,287.9 855.9,287.8 858.0,287.9 860.1,288.0 862.2,288.1 864.2,287.8 866.3,287.8 868.4,287.8 870.4,288.1 872.5,287.8 874.6,287.9 876.6,287.9 878.7,287.9 880.8,288.0 882.9,287.8 884.9,287.8 887.0,287.6 889.1,287.8 891.1,287.6 893.2,287.8 895.3,287.6 897.3,288.0 899.4,288.1 901.5,287.9 903.6,287.8 905.6,287.6 907.7,287.7 909.8,287.7 911.8,287.8 913.9,287.7 916.0,287.7 918.0,286.2 920.1,286.4 922.2,286.3 924.3,286.4 926.3,286.0 928.4,286.7 930.5,286.2 932.5,286.4 934.6,286.2 936.7,286.3 938.7,286.3 940.8,286.3 942.9,286.1 945.0,286.0 947.0,286.1 949.1,286.4 951.2,286.3 953.2,286.2 955.3,286.3 957.4,286.4 959.4,286.2 961.5,286.2 963.6,286.3 965.7,286.4 967.7,286.1 969.8,286.4 971.9,286.5 973.9,286.1 976.0,286.3 978.1,286.3 980.2,286.3 982.2,286.3 984.3,286.3 986.4,286.4 988.4,286.1 990.5,286.3 992.6,286.2 994.6,286.2 996.7,286.3 998.8,286.4 1000.9,286.2 1002.9,286.0 1005.0,286.5 1007.1,286.5 1009.1,286.3 1011.2,286.1 1013.3,286.3 1015.3,286.4 1017.4,286.4 1019.5,286.4 1021.6,286.4 1023.6,286.2 1025.7,286.1 1027.8,286.1 1029.8,286.3 1031.9,286.2 1034.0,286.0 1036.0,286.2 1038.1,286.1 1040.2,286.3 1042.3,286.1 1044.3,286.4 1046.4,286.3 1048.5,286.2 1050.5,286.4 1052.6,286.5 1054.7,286.4 1056.7,286.3 1058.8,286.1 1060.9,286.3 1063.0,286.2 1065.0,286.0 1067.1,286.3 1069.2,286.0 1071.2,286.1 1073.3,286.2 1075.4,286.1 1077.4,286.3 1079.5,286.2 1081.6,286.0 1083.7,286.2 1085.7,286.4 1087.8,286.0 1089.9,286.2 1091.9,286.2 1094.0,286.4 1096.1,286.1 1098.1,286.3 1100.2,286.2 1102.3,286.3 1104.4,286.2 1106.4,286.3 1108.5,286.0 1110.6,286.3 1112.6,286.3 1114.7,286.3 1116.8,286.1 1118.8,286.3 1120.9,286.3 1123.0,286.2 1125.1,285.9 1127.1,286.0 1129.2,286.1 1131.3,286.3 1133.3,286.2 1135.4,285.8 1137.5,286.2 1139.5,286.0 1141.6,285.8 1143.7,286.1 1145.8,286.1 1147.8,286.1 1149.9,286.1 1152.0,285.8 1154.0,286.3 1156.1,286.1 1158.2,286.2 1160.3,285.8 1162.3,286.2 1164.4,286.3 1166.5,286.2 1168.5,286.1 1170.6,285.8 1172.7,285.8 1174.7,286.0 1176.8,285.9 1178.9,286.0 1181.0,285.9 1183.0,286.3 1185.1,286.4 1187.2,286.0 1189.2,286.4 1191.3,286.0 1193.4,286.2 1195.4,285.9 1197.5,286.3 1199.6,285.9 1201.7,286.2 1203.7,286.2 1205.8,286.1 1207.9,286.2 1209.9,286.4 1212.0,286.4 1214.1,286.1 1216.1,286.1 1218.2,286.2 1220.3,286.3 1222.4,286.2 1224.4,286.1 1226.5,286.1 1228.6,285.9 1230.6,286.3 1232.7,286.3 1234.8,286.1 1236.8,286.3 1238.9,286.4 1241.0,286.0 1243.1,286.0 1245.1,286.1 1247.2,286.0 1249.3,285.9 1251.3,286.2 1253.4,286.4 1255.5,286.4 1257.5,286.1 1259.6,286.3 1261.7,286.1 1263.8,286.2 1265.8,286.3 1267.9,286.1 1270.0,286.3 1272.0,286.2 1274.1,286.1 1276.2,286.2 1278.2,286.4 1280.3,286.0 1282.4,286.2 1284.5,286.2 1286.5,286.3 1288.6,286.1 1290.7,286.0 1292.7,286.2 1294.8,286.1 1296.9,286.1 1298.9,286.2 1301.0,286.2 1303.1,286.3 1305.2,286.3 1307.2,286.3 1309.3,286.2 1311.4,286.4 1313.4,286.4 1315.5,286.3 1317.6,286.2 1319.6,286.5 1321.7,286.0 1323.8,286.2 1325.9,286.1 1327.9,286.3 1330.0,286.3" fill="none" stroke="#6B7280" stroke-width="2.4"/>
<polyline points="90.0,409.4 92.1,409.2 94.1,409.5 96.2,409.3 98.3,409.4 100.4,409.4 102.4,409.4 104.5,409.3 106.6,409.3 108.6,409.0 110.7,409.1 112.8,409.5 114.8,409.8 116.9,409.2 119.0,408.9 121.1,409.2 123.1,409.2 125.2,409.4 127.3,409.4 129.3,409.4 131.4,409.5 133.5,409.5 135.5,409.5 137.6,409.7 139.7,409.5 141.8,409.5 143.8,409.6 145.9,409.3 148.0,409.6 150.0,409.4 152.1,409.5 154.2,409.3 156.2,409.3 158.3,409.7 160.4,409.6 162.5,409.6 164.5,409.4 166.6,409.3 168.7,409.5 170.7,409.3 172.8,409.5 174.9,409.0 176.9,409.4 179.0,409.3 181.1,409.5 183.2,409.5 185.2,409.2 187.3,409.6 189.4,409.0 191.4,409.2 193.5,409.4 195.6,409.4 197.6,409.6 199.7,409.5 201.8,409.4 203.9,409.4 205.9,409.2 208.0,409.4 210.1,409.5 212.1,409.4 214.2,409.3 216.3,409.6 218.3,409.6 220.4,409.4 222.5,409.2 224.6,409.3 226.6,409.6 228.7,409.4 230.8,409.2 232.8,409.2 234.9,409.2 237.0,409.4 239.0,409.3 241.1,409.2 243.2,409.3 245.3,409.0 247.3,409.5 249.4,409.4 251.5,409.3 253.5,409.5 255.6,409.4 257.7,409.4 259.7,409.4 261.8,409.4 263.9,409.4 266.0,409.2 268.0,409.3 270.1,409.3 272.2,409.2 274.2,409.3 276.3,409.4 278.4,409.4 280.5,409.2 282.5,409.5 284.6,409.6 286.7,409.5 288.7,409.2 290.8,409.2 292.9,409.2 294.9,409.4 297.0,148.7 299.1,148.8 301.2,148.5 303.2,148.5 305.3,148.6 307.4,148.7 309.4,148.8 311.5,148.6 313.6,148.5 315.6,148.5 317.7,148.8 319.8,148.5 321.9,148.9 323.9,148.8 326.0,148.9 328.1,148.5 330.1,148.5 332.2,148.6 334.3,148.4 336.3,148.6 338.4,148.8 340.5,148.4 342.6,148.9 344.6,148.6 346.7,148.8 348.8,148.4 350.8,148.9 352.9,148.8 355.0,148.7 357.0,148.6 359.1,148.7 361.2,148.5 363.3,148.6 365.3,148.6 367.4,148.8 369.5,148.6 371.5,148.6 373.6,148.7 375.7,148.6 377.7,148.9 379.8,148.7 381.9,148.4 384.0,148.8 386.0,148.6 388.1,149.0 390.2,148.8 392.2,148.7 394.3,148.6 396.4,148.8 398.4,148.4 400.5,148.6 402.6,148.7 404.7,148.8 406.7,148.5 408.8,148.5 410.9,148.9 412.9,148.6 415.0,148.7 417.1,148.6 419.1,148.7 421.2,148.7 423.3,148.7 425.4,148.8 427.4,148.6 429.5,148.6 431.6,148.6 433.6,148.7 435.7,148.5 437.8,148.9 439.8,148.6 441.9,148.7 444.0,149.0 446.1,148.4 448.1,148.7 450.2,148.6 452.3,148.6 454.3,148.6 456.4,148.9 458.5,148.4 460.6,148.6 462.6,148.8 464.7,148.7 466.8,148.7 468.8,148.5 470.9,148.7 473.0,148.6 475.0,148.7 477.1,148.7 479.2,148.6 481.3,148.5 483.3,148.4 485.4,148.6 487.5,148.5 489.5,148.6 491.6,148.7 493.7,148.8 495.7,148.8 497.8,148.8 499.9,148.6 502.0,148.9 504.0,277.6 506.1,277.3 508.2,277.1 510.2,277.3 512.3,277.6 514.4,277.4 516.4,277.5 518.5,277.4 520.6,277.4 522.7,277.2 524.7,277.1 526.8,277.1 528.9,277.3 530.9,277.2 533.0,277.6 535.1,277.4 537.1,277.4 539.2,277.3 541.3,277.4 543.4,277.3 545.4,277.2 547.5,277.2 549.6,277.5 551.6,277.5 553.7,277.3 555.8,277.3 557.8,277.5 559.9,277.4 562.0,277.4 564.1,277.1 566.1,277.4 568.2,277.3 570.3,277.2 572.3,277.3 574.4,277.3 576.5,277.4 578.5,277.4 580.6,277.3 582.7,277.4 584.8,277.3 586.8,277.3 588.9,277.3 591.0,277.5 593.0,277.4 595.1,277.4 597.2,277.4 599.2,277.4 601.3,277.7 603.4,277.2 605.5,277.3 607.5,277.3 609.6,277.4 611.7,277.4 613.7,277.4 615.8,277.3 617.9,277.1 619.9,277.3 622.0,277.5 624.1,277.0 626.2,277.4 628.2,277.2 630.3,277.5 632.4,277.3 634.4,277.2 636.5,277.4 638.6,277.3 640.7,277.3 642.7,277.5 644.8,277.4 646.9,277.4 648.9,277.3 651.0,277.4 653.1,277.3 655.1,277.3 657.2,277.3 659.3,277.4 661.4,277.1 663.4,277.3 665.5,277.4 667.6,277.3 669.6,277.2 671.7,277.4 673.8,277.3 675.8,277.2 677.9,277.4 680.0,277.2 682.1,277.2 684.1,277.2 686.2,277.2 688.3,277.4 690.3,277.4 692.4,277.4 694.5,277.4 696.5,277.1 698.6,277.3 700.7,277.3 702.8,277.3 704.8,277.3 706.9,277.5 709.0,277.2 711.0,280.6 713.1,280.8 715.2,280.8 717.2,281.0 719.3,280.6 721.4,280.4 723.5,280.9 725.5,280.7 727.6,280.9 729.7,280.8 731.7,280.8 733.8,280.6 735.9,280.7 737.9,280.6 740.0,280.9 742.1,280.7 744.2,280.8 746.2,280.7 748.3,280.9 750.4,280.8 752.4,280.9 754.5,280.7 756.6,281.1 758.6,280.8 760.7,280.7 762.8,281.0 764.9,280.6 766.9,280.8 769.0,280.8 771.1,280.9 773.1,280.7 775.2,281.0 777.3,281.0 779.3,280.7 781.4,280.9 783.5,280.7 785.6,280.8 787.6,280.8 789.7,280.9 791.8,280.6 793.8,281.0 795.9,280.8 798.0,280.8 800.1,280.9 802.1,280.9 804.2,280.7 806.3,280.8 808.3,280.7 810.4,280.8 812.5,280.8 814.5,281.1 816.6,280.8 818.7,280.8 820.8,280.8 822.8,280.9 824.9,280.8 827.0,280.9 829.0,281.2 831.1,280.9 833.2,281.0 835.2,281.0 837.3,280.8 839.4,281.0 841.5,281.0 843.5,280.9 845.6,280.8 847.7,280.9 849.7,281.1 851.8,280.9 853.9,280.9 855.9,280.8 858.0,280.9 860.1,281.0 862.2,281.1 864.2,280.9 866.3,280.8 868.4,280.8 870.4,281.1 872.5,280.8 874.6,280.9 876.6,280.9 878.7,280.9 880.8,281.0 882.9,280.8 884.9,280.8 887.0,280.7 889.1,280.9 891.1,280.7 893.2,280.8 895.3,280.7 897.3,281.0 899.4,281.1 901.5,281.0 903.6,280.8 905.6,280.6 907.7,280.7 909.8,280.8 911.8,280.9 913.9,280.8 916.0,280.8 918.0,279.3 920.1,279.5 922.2,279.4 924.3,279.5 926.3,279.2 928.4,279.8 930.5,279.3 932.5,279.5 934.6,279.3 936.7,279.4 938.7,279.4 940.8,279.4 942.9,279.3 945.0,279.2 947.0,279.3 949.1,279.5 951.2,279.4 953.2,279.3 955.3,279.5 957.4,279.5 959.4,279.3 961.5,279.3 963.6,279.5 965.7,279.5 967.7,279.3 969.8,279.5 971.9,279.6 973.9,279.3 976.0,279.4 978.1,279.4 980.2,279.5 982.2,279.4 984.3,279.4 986.4,279.5 988.4,279.2 990.5,279.4 992.6,279.3 994.6,279.4 996.7,279.4 998.8,279.5 1000.9,279.3 1002.9,279.1 1005.0,279.6 1007.1,279.6 1009.1,279.4 1011.2,279.3 1013.3,279.4 1015.3,279.5 1017.4,279.5 1019.5,279.6 1021.6,279.5 1023.6,279.4 1025.7,279.2 1027.8,279.3 1029.8,279.4 1031.9,279.4 1034.0,279.2 1036.0,279.3 1038.1,279.2 1040.2,279.4 1042.3,279.2 1044.3,279.6 1046.4,279.4 1048.5,279.3 1050.5,279.5 1052.6,279.6 1054.7,279.5 1056.7,279.4 1058.8,279.3 1060.9,279.4 1063.0,279.3 1065.0,279.2 1067.1,279.4 1069.2,279.2 1071.2,279.3 1073.3,279.4 1075.4,279.2 1077.4,279.4 1079.5,279.4 1081.6,279.2 1083.7,279.4 1085.7,279.5 1087.8,279.1 1089.9,279.4 1091.9,279.3 1094.0,279.5 1096.1,279.2 1098.1,279.5 1100.2,279.4 1102.3,279.4 1104.4,279.3 1106.4,279.4 1108.5,279.1 1110.6,279.4 1112.6,279.4 1114.7,279.4 1116.8,279.3 1118.8,279.4 1120.9,279.4 1123.0,279.4 1125.1,279.1 1127.1,279.2 1129.2,279.3 1131.3,279.4 1133.3,279.4 1135.4,279.0 1137.5,279.3 1139.5,279.2 1141.6,278.9 1143.7,279.3 1145.8,279.3 1147.8,279.2 1149.9,279.2 1152.0,279.0 1154.0,279.4 1156.1,279.3 1158.2,279.3 1160.3,279.0 1162.3,279.3 1164.4,279.4 1166.5,279.3 1168.5,279.3 1170.6,279.0 1172.7,279.0 1174.7,279.2 1176.8,279.1 1178.9,279.2 1181.0,279.1 1183.0,279.4 1185.1,279.5 1187.2,279.1 1189.2,279.5 1191.3,279.1 1193.4,279.3 1195.4,279.1 1197.5,279.4 1199.6,279.1 1201.7,279.3 1203.7,279.4 1205.8,279.2 1207.9,279.3 1209.9,279.5 1212.0,279.5 1214.1,279.2 1216.1,279.2 1218.2,279.4 1220.3,279.4 1222.4,279.3 1224.4,279.3 1226.5,279.2 1228.6,279.1 1230.6,279.4 1232.7,279.5 1234.8,279.3 1236.8,279.4 1238.9,279.5 1241.0,279.1 1243.1,279.1 1245.1,279.3 1247.2,279.1 1249.3,279.0 1251.3,279.4 1253.4,279.5 1255.5,279.5 1257.5,279.2 1259.6,279.4 1261.7,279.3 1263.8,279.3 1265.8,279.4 1267.9,279.3 1270.0,279.4 1272.0,279.4 1274.1,279.3 1276.2,279.3 1278.2,279.6 1280.3,279.2 1282.4,279.3 1284.5,279.3 1286.5,279.4 1288.6,279.2 1290.7,279.2 1292.7,279.4 1294.8,279.2 1296.9,279.2 1298.9,279.3 1301.0,279.3 1303.1,279.5 1305.2,279.4 1307.2,279.4 1309.3,279.4 1311.4,279.5 1313.4,279.5 1315.5,279.4 1317.6,279.3 1319.6,279.6 1321.7,279.1 1323.8,279.3 1325.9,279.3 1327.9,279.4 1330.0,279.4" fill="none" stroke="#1565C0" stroke-width="2.4"/>
<text x="30" y="272.5" transform="rotate(-90 30 272.5)" text-anchor="middle" class="label">Y acceleration (g)</text>
<line x1="320" y1="535" x2="350" y2="535" stroke="#6B7280" stroke-width="4"/><text x="360" y="541" class="label">Raw</text>
<line x1="510" y1="535" x2="540" y2="535" stroke="#1565C0" stroke-width="4"/><text x="550" y="541" class="label">Calibrated</text>
<line x1="750" y1="535" x2="780" y2="535" stroke="#17212B" stroke-width="2" stroke-dasharray="7 5"/><text x="790" y="541" class="label">Ideal response</text>
</svg>